<svg width="180" height="149" viewBox="0 0 180 149" fill="none" xmlns="http://www.w3.org/2000/svg">
<path d="M125.133 123.824C113.864 123.826 102.83 120.619 93.3359 114.583C84.1676 108.754 76.8057 100.522 72.0548 90.8035C71.728 90.1349 71.6557 89.3629 71.902 88.6607C72.2268 87.64 72.7878 86.7094 73.54 85.9435C74.1445 85.2042 74.8882 84.5893 75.7296 84.1334C76.8687 83.4789 78.0963 82.9902 79.3749 82.682C82.1077 81.9563 85.5747 81.4162 90.3148 80.8677C93.96 80.5048 98.1526 80.142 102.71 79.7833C107.633 79.4205 118.751 79.239 124.951 79.239C131.15 79.239 142.451 79.4205 147.369 79.6019C151.519 79.7416 155.658 80.1036 159.769 80.6863C164.509 81.2306 167.972 81.7748 170.705 82.5005C172.047 82.7793 173.337 83.2693 174.524 83.952C175.366 84.4068 176.11 85.0218 176.714 85.762C177.443 86.6691 177.804 87.5763 178.352 88.6649C178.597 89.3655 178.527 90.133 178.201 90.8001C173.453 100.519 166.093 108.753 156.925 114.583C147.433 120.619 136.401 123.826 125.133 123.824Z" fill="#282829"/>
<path fill-rule="evenodd" clip-rule="evenodd" d="M91.5236 100.533H158.068L152.444 144.968H97.1482L91.5236 100.533Z" fill="#282829"/>
<path d="M108.823 79.4855C108.823 87.0672 114.969 93.2134 122.551 93.2134H127.658C135.264 93.2134 141.43 87.0477 141.43 79.4419C136.004 79.3272 129.132 79.239 124.771 79.239C120.563 79.239 114.099 79.3212 108.823 79.4855Z" fill="#FFB49C"/>
<circle r="2.35984" transform="matrix(-1 0 0 1 124.761 116.75)" fill="white"/>
<path d="M141.076 26.3217C140.145 24.516 137.564 24.516 136.634 26.3217C136.075 27.4067 134.813 27.9291 133.651 27.5571C131.716 26.9381 129.891 28.7637 130.51 30.6983C130.882 31.8608 130.359 33.1218 129.274 33.6808C127.469 34.6111 127.469 37.1928 129.274 38.1231C130.359 38.6821 130.882 39.9432 130.51 41.1056C129.891 43.0403 131.716 44.8658 133.651 44.2468C134.813 43.8748 136.075 44.3972 136.634 45.4822C137.564 47.2879 140.145 47.2879 141.076 45.4822C141.635 44.3972 142.896 43.8748 144.058 44.2468C145.993 44.8658 147.818 43.0403 147.199 41.1056C146.828 39.9432 147.35 38.6821 148.435 38.1231C150.241 37.1928 150.241 34.6111 148.435 33.6808C147.35 33.1218 146.828 31.8608 147.199 30.6983C147.818 28.7637 145.993 26.9381 144.058 27.5571C142.896 27.9291 141.635 27.4067 141.076 26.3217Z" fill="#773E39"/>
<path d="M126.586 74.2227C116.411 74.2227 108.162 65.9609 108.162 55.7693C108.162 45.5778 116.411 37.3159 126.586 37.3159C136.761 37.3159 145.01 45.5778 145.01 55.7693C145.01 65.9609 136.761 74.2227 126.586 74.2227Z" fill="#FFB49C"/>
<path d="M108.162 52.6789C108.27 50.4581 108.679 48.2634 109.378 46.1575C110.495 43.2293 112.329 40.6431 114.704 38.6468C117.079 36.6505 119.917 35.3111 122.944 34.7567C125.953 34.496 128.984 34.7327 131.919 35.4578C135.456 36.6991 138.525 39.0375 140.699 42.1465C143.343 45.9283 145.942 54.5522 144.192 59.2756C144.192 59.2756 132.076 55.7138 128.438 42.9627L108.176 52.8013C108.158 52.7589 108.162 52.7166 108.162 52.6789Z" fill="#773E39"/>
<path d="M132.076 68.9938C132.076 72.7469 135.111 75.7874 138.852 75.7874C142.594 75.7874 145.629 72.7469 145.629 68.9938C145.629 65.2407 142.594 62.2002 138.852 62.2002C135.111 62.2002 132.076 65.2407 132.076 68.9938Z" stroke="#282829"/>
<path fill-rule="evenodd" clip-rule="evenodd" d="M144.797 57.7075C141.927 49.9015 131.569 41.9426 123.05 41.9426C117.067 41.9426 111.718 44.6356 108.159 48.8689C109.989 40.3631 117.541 33.9885 126.58 33.9885C130.229 33.9885 133.635 35.027 136.52 36.8249C140.139 39.7141 143.109 43.5168 144.667 47.5489C145.16 49.2343 145.424 51.0173 145.424 52.8623C145.424 54.5373 145.206 56.1613 144.797 57.7075Z" fill="#FF4438"/>
<path d="M122.602 61.9343C122.003 63.0428 120.99 63.8699 119.783 64.2355C119.166 64.3668 118.528 64.3738 117.907 64.2561C117.287 64.1383 116.696 63.8981 116.17 63.5497" stroke="white" stroke-width="2" stroke-linecap="round" stroke-linejoin="round"/>
<circle r="5.98903" transform="matrix(-1 0 0 1 136.775 55.9483)" fill="#FFB49C"/>
<path d="M120.145 113.422H144.816V115.956C144.816 119.223 143.513 122.357 141.193 124.667C138.873 126.978 135.726 128.276 132.445 128.276C129.164 128.276 126.018 126.978 123.698 124.667C121.378 122.357 120.074 119.223 120.074 115.956V113.422H120.145Z" fill="#FF4338"/>
<path d="M108.79 140.211H55.5467L41.3376 104.847C40.8096 103.533 41.7771 102.102 43.1934 102.102H92.7344C93.5615 102.102 94.3033 102.611 94.6007 103.383L108.79 140.211Z" fill="#E5E8ED"/>
<rect x="55" y="139" width="72" height="6" rx="3" fill="#9C9CAC"/>
<path d="M75.3385 127.238C77.3379 126.299 78.1617 123.839 77.1786 121.743C76.1955 119.647 73.7777 118.709 71.7784 119.648C69.779 120.587 68.9552 123.048 69.9383 125.143C70.9214 127.239 73.3391 128.177 75.3385 127.238Z" fill="black"/>
<path d="M156.092 113.734L172.264 100.595V143.818L154.576 143.298L156.092 113.734Z" fill="#FFB49C"/>
<path d="M140.655 133.254L151.414 122.361L172.18 143.868C166.217 149.625 156.733 149.515 150.905 143.621L140.655 133.254Z" fill="#FFB49C"/>
<path d="M156.6 127.379L168.728 140.013" stroke="#282829" stroke-linecap="round" stroke-linejoin="round"/>
<path d="M147.746 111.516L150.216 124.291L144.893 125.32L143.452 117.868C142.884 114.929 144.806 112.085 147.746 111.516Z" fill="#FFB49C"/>
<path d="M125.126 119.81C130.618 113.475 140.205 112.792 146.54 118.284L151.865 122.901L141.921 134.371L125.126 119.81Z" fill="#FFB49C"/>
<path d="M2 36.8218C2 20.0755 15.5755 6.5 32.3218 6.5C49.0681 6.5 62.6436 20.0755 62.6436 36.8218V67.1436H32.3218C15.5756 67.1436 2 53.5681 2 36.8218Z" fill="#FFF2F1"/>
<mask id="mask0_362_11743" style="mask-type:alpha" maskUnits="userSpaceOnUse" x="2" y="6" width="61" height="62">
<path d="M2 36.8218C2 20.0755 15.5755 6.5 32.3218 6.5C49.0681 6.5 62.6436 20.0755 62.6436 36.8218V67.1436H32.3218C15.5756 67.1436 2 53.5681 2 36.8218Z" fill="white"/>
</mask>
<g mask="url(#mask0_362_11743)">
<path d="M33.8023 73.1763C41.3438 73.1787 56.2901 72.9753 62.6435 68.9123C68.997 64.8493 66.4918 57.0966 69.6533 50.2498C69.5851 49.9999 69.5084 49.7528 69.4261 49.5085C69.2077 48.8214 68.8313 48.195 68.327 47.6796C67.9231 47.1814 67.4252 46.7675 66.8616 46.4613C66.0995 46.0203 65.278 45.6913 64.4222 45.4844C62.5933 44.9959 60.2759 44.6324 57.1037 44.2632C54.6643 44.019 51.8556 43.7747 48.8055 43.5334C45.5141 43.2891 38.0707 43.167 33.9244 43.167C29.7781 43.167 22.2098 43.2891 18.9183 43.4113C16.1421 43.5052 13.3729 43.7488 10.623 44.1411C7.45079 44.5075 5.13058 44.8738 3.30168 45.3622C2.40332 45.5504 1.54058 45.8802 0.745768 46.3392C0.183032 46.6454 -0.313903 47.0593 -0.716755 47.5575C-1.15446 48.166 -1.52304 48.8213 -1.81576 49.5114C-1.90096 49.7556 -1.97481 49.9999 -2.04297 50.2498C1.1181 57.0958 6.17381 62.8931 12.5262 66.956C18.8785 71.019 26.2617 73.1776 33.8023 73.1763Z" fill="#807373"/>
<mask id="mask1_362_11743" style="mask-type:alpha" maskUnits="userSpaceOnUse" x="-3" y="43" width="73" height="31">
<path d="M33.8023 73.1763C41.3438 73.1787 59.3223 75.5021 65.6757 71.4391C72.0292 67.3761 66.4918 57.0966 69.6533 50.2498C69.5851 49.9999 69.5084 49.7528 69.4261 49.5085C69.2077 48.8214 68.8313 48.195 68.327 47.6796C67.9231 47.1814 67.4252 46.7675 66.8616 46.4613C66.0995 46.0203 65.278 45.6913 64.4222 45.4844C62.5933 44.9959 60.2759 44.6324 57.1037 44.2632C54.6643 44.019 51.8556 43.7747 48.8055 43.5334C45.5141 43.2891 38.0707 43.167 33.9244 43.167C29.7781 43.167 22.2098 43.2891 18.9183 43.4113C16.1421 43.5052 13.3729 43.7488 10.623 44.1411C7.45079 44.5075 5.13058 44.8738 3.30168 45.3622C2.40332 45.5504 1.54058 45.8802 0.745768 46.3392C0.183032 46.6454 -0.313903 47.0593 -0.716755 47.5575C-1.15446 48.166 -1.52304 48.8213 -1.81576 49.5114C-1.90096 49.7556 -1.97481 49.9999 -2.04297 50.2498C1.1181 57.0958 6.17381 62.8931 12.5262 66.956C18.8785 71.019 26.2617 73.1776 33.8023 73.1763Z" fill="#282829"/>
</mask>
<g mask="url(#mask1_362_11743)">
<rect x="12.875" y="43.1702" width="4.73781" height="28.0321" fill="white"/>
<rect x="50.3826" y="43.1702" width="4.73781" height="28.0321" fill="white"/>
</g>
<path d="M31.9122 38.1869C37.9086 38.1869 42.7697 33.3258 42.7697 27.3294C42.7697 21.333 37.9086 16.4719 31.9122 16.4719C25.9158 16.4719 21.0547 21.333 21.0547 27.3294C21.0547 33.3258 25.9158 38.1869 31.9122 38.1869Z" fill="#5F423B"/>
<path fill-rule="evenodd" clip-rule="evenodd" d="M38.2397 18.1746C40.0669 19.4839 41.451 21.3171 42.2106 23.4293H46.632C47.3952 23.4293 48.0139 24.0479 48.0139 24.8111C48.0139 25.5743 47.3952 26.193 46.632 26.193H22.1533C21.3902 26.193 20.7715 25.5743 20.7715 24.8111C20.7715 24.3017 21.0471 23.8567 21.4573 23.6171H21.3008C22.0447 21.4258 23.4563 19.5225 25.3373 18.1746C27.2184 16.8267 29.4744 16.1018 31.7885 16.1018C34.1027 16.1018 36.3587 16.8267 38.2397 18.1746ZM31.8265 20.2707C33.5709 20.2707 34.9851 21.6848 34.9851 23.4292H28.668C28.668 21.6848 30.0821 20.2707 31.8265 20.2707Z" fill="#FF8E87"/>
<path d="M52.9045 47.4502L63.6927 45.6559L68.2936 73.3185L56.1664 74.618L52.9045 47.4502Z" fill="#5F423B"/>
<path d="M48.9998 46.0217C49.9772 44.8132 51.7494 44.6258 52.958 45.6033L56.4794 48.4515L54.7095 50.6398L48.9998 46.0217Z" fill="#5F423B"/>
<path d="M64.0311 48.0615C63.2067 42.2797 57.8755 38.2434 52.0868 39.0186L51.7523 39.0634L53.2412 49.5064L64.0311 48.0615Z" fill="#5F423B"/>
</g>
</svg>
